<?xml version="1.0" standalone="no"?>
<!DOCTYPE svg PUBLIC "-//W3C//DTD SVG 20010904//EN"
 "http://www.w3.org/TR/2001/REC-SVG-20010904/DTD/svg10.dtd">
<svg version="1.0" xmlns="http://www.w3.org/2000/svg"
 width="400.000000pt" height="400.000000pt" viewBox="0 0 400.000000 400.000000"
 preserveAspectRatio="xMidYMid meet">
<metadata>
Created by potrace 1.14, written by Peter Selinger 2001-2017
</metadata>
<g transform="translate(0.000000,400.000000) scale(0.100000,-0.100000)"
fill="#000000" stroke="none">
<path d="M0 2000 l0 -2000 2000 0 2000 0 0 2000 0 2000 -2000 0 -2000 0 0
-2000z m2052 1393 c22 -20 24 -80 3 -104 -18 -19 -36 22 190 -449 81 -168 150
-308 154 -313 6 -6 451 -70 735 -105 88 -11 89 -11 108 13 23 30 81 34 110 8
23 -20 24 -80 1 -105 -18 -20 -87 -25 -98 -8 -7 11 -111 -82 -418 -374 -160
-153 -197 -193 -193 -210 3 -12 26 -138 51 -281 25 -143 49 -270 52 -283 l5
-22 -237 0 -237 0 -135 76 c-75 41 -143 76 -152 76 -9 0 -76 -34 -150 -76
l-134 -76 -227 2 -227 3 58 300 c33 165 59 301 59 302 0 3 -447 419 -538 501
-44 39 -84 68 -87 62 -10 -16 -77 -12 -97 7 -23 20 -24 80 -1 105 25 28 87 24
111 -7 19 -24 20 -24 108 -14 288 36 739 100 745 106 6 7 213 441 314 660 36
78 37 84 22 101 -22 24 -22 80 0 104 20 23 80 24 105 1z"/>
</g>
</svg>
